<?xml version="1.0" standalone="no"?>
<!DOCTYPE svg PUBLIC "-//W3C//DTD SVG 20010904//EN"
 "http://www.w3.org/TR/2001/REC-SVG-20010904/DTD/svg10.dtd">
<svg version="1.0" xmlns="http://www.w3.org/2000/svg"
 width="400.000000pt" height="400.000000pt" viewBox="0 0 400.000000 400.000000"
 preserveAspectRatio="xMidYMid meet">
<metadata>
Created by potrace 1.16, written by Peter Selinger 2001-2019
</metadata>
<g transform="translate(0.000000,400.000000) scale(0.100000,-0.100000)"
fill="#000000" stroke="none">
<path d="M1755 3991 c-79 -8 -183 -29 -279 -57 -26 -8 -54 -14 -61 -14 -33 0
-398 -159 -440 -192 -27 -22 -87 -58 -95 -58 -4 0 -10 -3 -12 -7 -3 -9 -84
-73 -91 -73 -23 0 -367 -344 -367 -367 0 -7 -64 -88 -72 -91 -5 -2 -8 -8 -8
-12 0 -8 -36 -68 -58 -95 -33 -42 -192 -407 -192 -440 0 -7 -6 -35 -14 -61
-55 -187 -61 -237 -61 -524 0 -287 6 -337 61 -524 8 -26 14 -54 14 -61 0 -33
159 -398 192 -440 22 -27 58 -87 58 -95 0 -4 3 -10 8 -12 8 -3 72 -84 72 -91
0 -23 344 -367 367 -367 7 0 88 -64 91 -72 2 -5 8 -8 12 -8 8 0 68 -36 95 -58
42 -33 407 -192 440 -192 7 0 35 -6 61 -14 187 -55 237 -61 524 -61 287 0 337
6 524 61 26 8 54 14 61 14 33 0 398 159 440 192 27 22 87 58 95 58 4 0 10 3
12 8 3 8 84 72 91 72 23 0 367 344 367 367 0 7 64 88 73 91 4 2 7 8 7 12 0 8
36 68 58 95 33 42 192 407 192 440 0 7 6 35 14 61 55 187 61 237 61 524 0 287
-6 337 -61 524 -8 26 -14 54 -14 61 0 33 -159 398 -192 440 -22 27 -58 87 -58
95 0 4 -3 10 -7 12 -9 3 -73 84 -73 91 0 23 -344 367 -367 367 -7 0 -88 64
-91 73 -2 4 -8 7 -12 7 -8 0 -62 33 -95 57 -21 15 -121 66 -200 100 -153 68
-249 100 -365 123 -25 5 -72 16 -105 25 -70 17 -469 28 -600 16z m-595 -1831
l0 -139 72 74 c61 63 78 75 105 75 l32 0 -64 -67 c-36 -38 -65 -71 -65 -75 0
-4 29 -46 65 -92 36 -46 65 -87 65 -90 0 -3 -13 -6 -29 -6 -23 0 -35 10 -71
63 -66 95 -69 98 -91 84 -16 -10 -19 -24 -19 -79 0 -66 -1 -68 -25 -68 l-25 0
0 230 0 230 25 0 25 0 0 -140z m1005 126 c32 -14 46 -38 27 -50 -4 -2 -35 2
-68 10 -78 18 -142 3 -162 -38 -21 -44 0 -74 71 -98 34 -11 67 -20 75 -20 29
0 83 -34 97 -61 29 -56 14 -129 -35 -174 -19 -17 -36 -20 -119 -20 -108 1
-141 12 -141 50 0 29 7 30 46 10 17 -9 55 -15 94 -15 85 0 115 21 115 80 0 51
-27 74 -103 91 -133 27 -180 79 -152 165 18 54 70 83 153 83 38 1 83 -5 102
-13z m1245 -189 c0 -219 2 -227 52 -227 21 0 28 -5 28 -20 0 -16 -7 -20 -34
-20 -96 0 -106 28 -106 284 l0 186 30 0 30 0 0 -203z m-3096 151 c10 -24 27
-61 36 -83 10 -22 29 -65 43 -95 13 -30 33 -75 44 -98 l19 -44 29 69 c16 37
39 93 52 123 14 30 31 71 39 90 34 78 36 81 68 78 l31 -3 3 -222 2 -223 -25 0
-25 0 0 176 c0 102 -4 173 -9 170 -5 -4 -23 -41 -40 -84 -17 -42 -38 -90 -46
-107 -7 -16 -23 -51 -35 -77 -17 -40 -25 -48 -48 -48 -30 0 -29 -2 -117 205
-25 61 -49 113 -53 117 -4 4 -6 -74 -4 -172 l4 -180 -26 0 -26 0 0 225 0 225
33 0 c29 0 35 -5 51 -42z m639 -79 c56 -15 67 -49 67 -204 0 -118 -1 -125 -20
-125 -11 0 -20 7 -20 15 0 20 -20 19 -34 -1 -13 -18 -83 -29 -120 -20 -64 16
-88 99 -43 151 17 21 37 28 92 37 96 15 95 14 95 47 0 50 -23 63 -104 59 -60
-2 -71 0 -74 14 -6 28 95 46 161 27z m688 -25 c27 -26 49 -83 49 -128 l0 -26
-115 0 c-105 0 -115 -2 -115 -19 0 -31 43 -84 75 -93 31 -8 87 -2 116 13 12 6
18 3 22 -11 8 -33 -20 -45 -104 -45 -69 0 -80 3 -104 25 -38 34 -55 80 -55
142 0 55 25 123 53 146 46 38 136 36 178 -4z m1002 25 c21 -5 41 -17 44 -25 7
-18 29 -18 36 0 10 25 85 40 129 27 58 -18 68 -46 68 -201 l0 -130 -25 0 -25
0 0 123 c0 145 -9 167 -68 167 -43 0 -51 -5 -75 -42 -13 -22 -17 -50 -17 -138
l0 -110 -25 0 -25 0 0 123 c0 147 -9 167 -71 167 -29 0 -47 -7 -64 -25 -24
-23 -25 -30 -25 -145 0 -120 0 -120 -24 -120 -23 0 -23 1 -31 155 -3 85 -4
159 0 165 11 19 45 11 45 -10 0 -23 15 -27 23 -5 4 8 21 18 39 24 44 12 47 12
91 0z m550 -3 c47 -19 66 -46 79 -108 17 -82 -1 -157 -49 -199 -33 -28 -41
-31 -89 -27 -32 3 -62 12 -73 22 -20 18 -20 17 -23 -70 -3 -84 -4 -89 -25 -92
l-23 -3 0 240 c0 234 1 241 20 241 13 0 20 -7 20 -20 0 -24 15 -26 28 -5 17
31 86 42 135 21z m539 -7 c25 -14 56 -78 60 -125 l3 -39 -117 -3 c-71 -2 -118
-7 -118 -13 0 -5 9 -27 20 -49 14 -27 30 -42 53 -49 32 -11 48 -9 127 10 26 7
17 -34 -10 -48 -37 -19 -120 -16 -160 6 -62 33 -92 118 -74 209 9 42 68 110
102 115 33 6 91 -2 114 -14z m-1382 -154 l0 -165 -25 0 -25 0 0 165 0 165 25
0 25 0 0 -165z"/>
<path d="M881 1989 c-47 -9 -70 -31 -71 -66 0 -32 26 -53 67 -53 47 0 93 47
93 96 0 38 -6 39 -89 23z"/>
<path d="M3077 2118 c-23 -18 -37 -62 -37 -116 0 -124 102 -176 165 -85 39 58
33 145 -15 193 -23 23 -86 27 -113 8z"/>
</g>
</svg>
